# xmcd
#
# Track frame offsets:
#	150
#	16016
#	32262
#	53410
#	68197
#	85683
#	104768
#	125606
#	145972
#	163934
#	182709
#	200691
#	222180
#	241863
#	262754
#	282337
#	300047
#
# Disc length: 4238 seconds
#
# Revision: 0
# Processed by: cddbd v1.5.2PL0 Copyright (c) Steve Scherf et al.
# Submitted via: dBpowerAMP V4.0
#
DISCID=e0108c11
DTITLE=Mya - Moodring
DYEAR=1900
DGENRE=
TTITLE0=My Love Is Like...Wo
TTITLE1=Fallen
TTITLE2=Why You Gotta Look So Good
TTITLE3=Step
TTITLE4=Sophisticated Lady
TTITLE5=No Sleep Tonight
TTITLE6=Anatomy
TTITLE7=Hurry Up
TTITLE8=Things Come and Go
TTITLE9=You
TTITLE10=After The Rain
TTITLE11=Late
TTITLE12=Whatever Bitch
TTITLE13=Taste This
TTITLE14=Take A Picture
TTITLE15=Free Fallin'
TTITLE16=Real Compared To What
EXTD=
EXTT0=
EXTT1=
EXTT2=
EXTT3=
EXTT4=
EXTT5=
EXTT6=
EXTT7=
EXTT8=
EXTT9=
EXTT10=
EXTT11=
EXTT12=
EXTT13=
EXTT14=
EXTT15=
EXTT16=
PLAYORDER=
